<svg xmlns="http://www.w3.org/2000/svg" viewBox="0 0 256 256"><defs><style>.cls-1{fill:#272366}.cls-2{fill:#fff}</style></defs><title>icon</title><g id="Layer_2" data-name="Layer 2"><path class="cls-1" id="Layer_1-2" data-name="Layer 1" d="M0 0H256V256H0z"/><g id="Layer_2-2" data-name="Layer 2"><path class="cls-2" d="M51 175.39c-3.51 0-5.33-1.56-5.33-5.2 0-.39.13-1.43.13-2.21l9.62-78-14.3-1.82.39-3 25.09-4.94-10.4 84.24c0 2 .52 2.34 1.43 3l10.14-10.92 2.23 2.21c-4.91 10.4-12.71 16.64-19 16.64zm89.75-59.68h-19.11l-5.2 42.64c-.13 1-.26 2.47-.26 3 0 2.47.91 3.77 2.6 3.77s4.29-1.82 9.88-6.89l6.24-6.23 3.12 2.47a71.31 71.31 0 0 1-12.09 13.78c-5.2 4.81-8.71 6.76-12.48 6.76-4.81 0-7.67-3.51-7.67-9.49 0-.91.13-2.73.26-4l5.59-45.76h-11.18l.52-5.33h11.31l2-15.86h10.14l-2.08 15.86h19zm49.4 60.07c-12.61 0-20.41-10.14-20.41-27 0-22.1 13.39-39.65 30.68-39.65 12.74 0 20.41 10 20.41 26.65 0 22.22-13.52 40-30.68 40zm8.71-62.14c-15 0-17.94 27.43-17.94 38 0 13.39 3.25 19.63 10.66 19.63 14.82 0 18.2-27 18.2-37.83 0-13.04-3.64-19.81-10.92-19.81z"/></g></g></svg>