<?xml version="1.0" encoding="UTF-8"?>
<svg width="128px" height="128px" viewBox="0 0 128 128" version="1.1" xmlns="http://www.w3.org/2000/svg" xmlns:xlink="http://www.w3.org/1999/xlink">
    <!-- Generator: Sketch 63.1 (92452) - https://sketch.com -->
    <title>icon</title>
    <desc>Created with Sketch.</desc>
    <defs>
        <polygon id="path-1" points="0 0.000726174957 54.5450909 0.000726174957 54.5450909 44.2605452 0 44.2605452"></polygon>
    </defs>
    <g id="icon" stroke="none" stroke-width="1" fill="none" fill-rule="evenodd">
        <rect fill="#204D9D" x="0" y="0" width="128" height="128"></rect>
        <g id="icon-twitter" transform="translate(14.000000, 14.000000)">
            <g id="Group-3" transform="translate(22.727273, 28.181818)">
                <g id="Fill-1-Clipped">
                    <mask id="mask-2" fill="white">
                        <use xlink:href="#path-1"></use>
                    </mask>
                    <g id="path-1"></g>
                    <path d="M54.5450909,5.23953386 C52.5378182,6.12909818 50.3814545,6.72819252 48.1178182,6.99869269 C50.4287273,5.61714484 52.2032727,3.4259119 53.0378182,0.81712837 C50.876,2.09882717 48.4814545,3.02833111 45.9323636,3.52939184 C43.8923636,1.35631328 40.9832727,0.000181543739 37.7650909,0.000181543739 C31.5832727,0.000181543739 26.5723636,5.003527 26.5723636,11.1741987 C26.5723636,12.0492395 26.6723636,12.9024951 26.8614545,13.7194419 C17.5614545,13.2546899 9.316,8.8050529 3.79781818,2.04617949 C2.83418182,3.69459664 2.28145455,5.6153294 2.28145455,7.66314278 C2.28145455,11.5391016 4.25781818,14.9593857 7.25963636,16.9636285 C5.42509091,16.9055345 3.69963636,16.4026584 2.19236364,15.5657417 C2.19054545,15.6129431 2.19054545,15.6583291 2.19054545,15.7055304 C2.19054545,21.1209802 6.04872727,25.635973 11.1687273,26.6616951 C10.2287273,26.9176718 9.23963636,27.0538296 8.21963636,27.0538296 C7.49781818,27.0538296 6.796,26.984843 6.11236364,26.8541315 C7.53781818,31.2928759 11.6705455,34.5243544 16.5669091,34.6133109 C12.7378182,37.610598 7.91236364,39.3969884 2.67054545,39.3969884 C1.76690909,39.3969884 0.874181818,39.3443407 -0.000363636364,39.2408608 C4.95236364,42.4124299 10.8341818,44.2605452 17.1541818,44.2605452 C37.7378182,44.2605452 48.9941818,27.2353733 48.9941818,12.4686056 C48.9941818,11.9838838 48.9814545,11.5027929 48.9614545,11.0235174 C51.1487273,9.44771774 53.0450909,7.4797836 54.5450909,5.23953386" id="Fill-1" fill="#FFFFFF" fill-rule="nonzero" mask="url(#mask-2)"></path>
                </g>
            </g>
            <circle id="Oval" stroke-opacity="0.3" stroke="#FFFFFF" stroke-width="5" cx="50" cy="50" r="50"></circle>
        </g>
    </g>
</svg>